<?xml version="1.0" encoding="utf-8" ?>
<svg baseProfile="tiny" height="1024" version="1.2" width="1024" xmlns="http://www.w3.org/2000/svg" xmlns:ev="http://www.w3.org/2001/xml-events" xmlns:xlink="http://www.w3.org/1999/xlink"><defs /><path d="M 429,186 L 428,187 L 428,188 L 425,191 L 425,192 L 423,194 L 423,195 L 420,198 L 420,199 L 417,202 L 417,203 L 414,206 L 414,207 L 411,210 L 411,211 L 409,213 L 409,214 L 406,217 L 406,218 L 403,221 L 403,222 L 401,224 L 401,225 L 398,228 L 398,229 L 395,232 L 395,233 L 392,236 L 392,237 L 388,241 L 388,242 L 385,245 L 385,246 L 381,250 L 381,251 L 378,254 L 378,255 L 374,259 L 374,260 L 370,264 L 370,265 L 367,268 L 367,269 L 364,272 L 364,273 L 361,276 L 361,277 L 357,281 L 357,282 L 354,285 L 354,286 L 349,291 L 349,292 L 345,296 L 345,297 L 342,300 L 342,301 L 338,305 L 338,306 L 335,309 L 335,310 L 331,314 L 331,315 L 328,318 L 328,319 L 324,323 L 324,324 L 321,327 L 321,328 L 317,332 L 317,333 L 313,337 L 313,338 L 309,342 L 309,343 L 305,347 L 305,348 L 301,352 L 301,353 L 297,357 L 297,358 L 293,362 L 293,363 L 288,368 L 288,369 L 284,373 L 284,374 L 280,378 L 280,379 L 276,383 L 276,384 L 272,388 L 272,389 L 268,393 L 268,394 L 264,398 L 264,399 L 260,403 L 260,404 L 256,408 L 256,409 L 252,413 L 252,414 L 248,418 L 248,419 L 243,424 L 243,425 L 239,429 L 239,430 L 234,435 L 234,436 L 229,441 L 229,442 L 225,446 L 225,447 L 220,452 L 220,453 L 215,458 L 215,459 L 210,464 L 210,465 L 206,469 L 206,470 L 201,475 L 201,476 L 198,479 L 198,482 L 219,503 L 219,504 L 247,532 L 247,533 L 268,554 L 268,555 L 291,578 L 291,579 L 297,585 L 297,586 L 292,591 L 291,591 L 271,611 L 270,611 L 239,642 L 238,642 L 200,680 L 199,680 L 199,682 L 219,702 L 219,703 L 253,737 L 253,738 L 255,740 L 255,743 L 254,744 L 254,746 L 253,747 L 253,749 L 252,750 L 252,753 L 251,754 L 251,756 L 250,757 L 250,760 L 249,761 L 249,764 L 248,765 L 248,768 L 247,769 L 247,772 L 246,773 L 246,776 L 245,777 L 245,780 L 244,781 L 244,784 L 243,785 L 243,787 L 242,788 L 242,791 L 241,792 L 241,795 L 240,796 L 240,799 L 239,800 L 239,803 L 238,804 L 238,807 L 237,808 L 237,811 L 236,812 L 236,814 L 235,815 L 235,818 L 234,819 L 234,821 L 233,822 L 233,825 L 232,826 L 232,828 L 231,829 L 231,832 L 230,833 L 230,835 L 229,836 L 229,839 L 228,840 L 228,842 L 227,843 L 227,846 L 226,847 L 226,849 L 225,850 L 225,852 L 224,853 L 224,856 L 223,857 L 223,860 L 222,861 L 222,863 L 221,864 L 221,867 L 220,868 L 220,870 L 219,871 L 219,874 L 218,875 L 218,878 L 217,879 L 217,882 L 217,881 L 220,878 L 220,877 L 225,872 L 225,871 L 230,866 L 230,865 L 234,861 L 234,860 L 237,857 L 237,856 L 240,853 L 240,852 L 244,848 L 244,847 L 249,842 L 249,841 L 254,836 L 254,835 L 258,831 L 258,830 L 262,826 L 262,825 L 265,822 L 265,821 L 266,820 L 266,819 L 267,818 L 267,816 L 268,815 L 268,812 L 269,811 L 269,807 L 270,806 L 270,803 L 271,802 L 271,799 L 272,798 L 272,794 L 273,793 L 273,790 L 274,789 L 274,786 L 275,785 L 275,782 L 276,781 L 276,778 L 277,777 L 277,774 L 278,773 L 278,770 L 279,769 L 279,766 L 280,765 L 281,765 L 331,815 L 331,816 L 332,816 L 333,817 L 333,818 L 400,885 L 400,886 L 442,928 L 442,929 L 465,952 L 465,953 L 473,961 L 473,736 L 474,735 L 474,725 L 472,723 L 471,723 L 468,720 L 467,720 L 465,718 L 465,717 L 407,659 L 407,658 L 406,657 L 405,657 L 404,656 L 404,655 L 403,654 L 402,654 L 401,653 L 401,652 L 400,651 L 399,651 L 398,650 L 398,649 L 357,608 L 357,607 L 339,589 L 339,588 L 340,587 L 341,587 L 346,582 L 347,582 L 355,574 L 356,574 L 367,563 L 368,563 L 375,556 L 376,556 L 384,548 L 385,548 L 393,540 L 394,540 L 403,531 L 404,531 L 418,517 L 419,517 L 427,509 L 428,509 L 430,511 L 430,513 L 431,514 L 431,515 L 432,516 L 432,518 L 433,519 L 433,520 L 434,521 L 434,523 L 435,524 L 435,525 L 436,526 L 436,528 L 437,529 L 437,530 L 438,531 L 438,533 L 439,534 L 439,536 L 440,537 L 440,538 L 441,539 L 441,541 L 442,542 L 442,543 L 443,544 L 443,546 L 444,547 L 444,548 L 445,549 L 445,551 L 446,552 L 446,553 L 447,554 L 447,556 L 448,557 L 448,558 L 449,559 L 449,560 L 450,561 L 450,563 L 451,564 L 451,565 L 452,566 L 452,568 L 453,569 L 453,570 L 454,571 L 454,573 L 455,574 L 455,575 L 456,576 L 456,577 L 457,578 L 457,580 L 458,581 L 458,583 L 459,584 L 459,585 L 460,586 L 460,588 L 461,589 L 461,590 L 462,591 L 462,592 L 463,593 L 463,594 L 464,595 L 464,596 L 465,597 L 465,598 L 466,599 L 466,601 L 468,603 L 468,605 L 469,606 L 469,605 L 471,603 L 471,602 L 472,601 L 472,600 L 474,598 L 474,597 L 475,596 L 475,595 L 477,593 L 477,592 L 478,591 L 478,590 L 479,589 L 479,588 L 481,586 L 481,585 L 482,584 L 482,583 L 484,581 L 484,580 L 486,578 L 486,577 L 488,575 L 488,574 L 490,572 L 490,571 L 491,570 L 491,569 L 493,567 L 493,566 L 495,564 L 495,563 L 496,562 L 496,561 L 498,559 L 498,558 L 499,557 L 499,556 L 501,554 L 501,553 L 502,552 L 502,551 L 504,549 L 504,548 L 505,547 L 505,546 L 507,544 L 507,543 L 509,541 L 509,540 L 511,538 L 512,538 L 513,539 L 513,540 L 514,541 L 514,542 L 516,544 L 516,545 L 518,547 L 518,548 L 519,549 L 519,550 L 521,552 L 521,553 L 523,555 L 523,556 L 525,558 L 525,559 L 527,561 L 527,562 L 529,564 L 529,565 L 530,566 L 530,567 L 532,569 L 532,570 L 533,571 L 533,572 L 535,574 L 535,575 L 537,577 L 537,578 L 539,580 L 539,581 L 541,583 L 541,584 L 543,586 L 543,587 L 545,589 L 545,590 L 547,592 L 547,593 L 548,594 L 548,595 L 550,597 L 550,598 L 552,600 L 552,601 L 553,602 L 553,603 L 555,605 L 555,604 L 556,603 L 556,602 L 557,601 L 557,599 L 558,598 L 558,597 L 559,596 L 559,594 L 560,593 L 560,592 L 561,591 L 561,590 L 562,589 L 562,587 L 563,586 L 563,585 L 564,584 L 564,582 L 565,581 L 565,580 L 566,579 L 566,577 L 567,576 L 567,575 L 568,574 L 568,573 L 569,572 L 569,570 L 570,569 L 570,568 L 571,567 L 571,565 L 572,564 L 572,563 L 573,562 L 573,561 L 574,560 L 574,558 L 575,557 L 575,556 L 576,555 L 576,553 L 577,552 L 577,551 L 578,550 L 578,548 L 579,547 L 579,546 L 580,545 L 580,543 L 581,542 L 581,541 L 582,540 L 582,538 L 583,537 L 583,535 L 584,534 L 584,533 L 585,532 L 585,530 L 586,529 L 586,528 L 587,527 L 587,525 L 588,524 L 588,523 L 589,522 L 589,520 L 590,519 L 590,518 L 591,517 L 591,516 L 592,515 L 592,513 L 593,512 L 593,511 L 594,510 L 594,509 L 595,508 L 608,521 L 609,521 L 619,531 L 620,531 L 628,539 L 629,539 L 637,547 L 638,547 L 645,554 L 646,554 L 655,563 L 656,563 L 665,572 L 666,572 L 675,581 L 676,581 L 684,589 L 650,623 L 650,624 L 609,665 L 609,666 L 560,715 L 560,716 L 557,719 L 556,719 L 556,720 L 554,722 L 553,722 L 549,726 L 549,766 L 550,767 L 550,839 L 549,840 L 549,944 L 548,945 L 548,959 L 549,959 L 597,911 L 597,910 L 617,890 L 618,890 L 630,878 L 630,877 L 710,797 L 711,797 L 738,770 L 738,769 L 742,765 L 744,767 L 744,771 L 745,772 L 745,775 L 746,776 L 746,779 L 747,780 L 747,783 L 748,784 L 748,787 L 749,788 L 749,791 L 750,792 L 750,795 L 751,796 L 751,799 L 752,800 L 752,804 L 753,805 L 753,808 L 754,809 L 754,812 L 755,813 L 755,816 L 756,817 L 756,818 L 759,821 L 759,822 L 763,826 L 763,827 L 768,832 L 768,833 L 774,839 L 774,840 L 779,845 L 779,846 L 782,849 L 782,850 L 785,853 L 785,854 L 788,857 L 788,858 L 791,861 L 791,862 L 794,865 L 794,866 L 798,870 L 798,871 L 808,881 L 808,879 L 807,878 L 807,877 L 806,876 L 806,874 L 805,873 L 805,871 L 804,870 L 804,868 L 803,867 L 803,864 L 802,863 L 802,861 L 801,860 L 801,858 L 800,857 L 800,854 L 799,853 L 799,851 L 798,850 L 798,847 L 797,846 L 797,844 L 796,843 L 796,841 L 795,840 L 795,837 L 794,836 L 794,834 L 793,833 L 793,831 L 792,830 L 792,828 L 791,827 L 791,824 L 790,823 L 790,821 L 789,820 L 789,818 L 788,817 L 788,815 L 787,814 L 787,812 L 786,811 L 786,808 L 785,807 L 785,804 L 784,803 L 784,800 L 783,799 L 783,796 L 782,795 L 782,792 L 781,791 L 781,788 L 780,787 L 780,785 L 779,784 L 779,781 L 778,780 L 778,777 L 777,776 L 777,773 L 776,772 L 776,769 L 775,768 L 775,766 L 774,765 L 774,762 L 773,761 L 773,759 L 772,758 L 772,755 L 771,754 L 771,752 L 770,751 L 770,748 L 769,747 L 769,745 L 768,744 L 768,741 L 767,740 L 800,707 L 800,706 L 824,682 L 824,681 L 817,674 L 817,673 L 809,665 L 808,665 L 790,647 L 789,647 L 772,630 L 771,630 L 728,587 L 727,587 L 726,586 L 726,585 L 749,562 L 749,561 L 772,538 L 772,537 L 803,506 L 803,505 L 822,486 L 822,485 L 826,481 L 824,479 L 824,478 L 819,473 L 819,472 L 814,467 L 814,466 L 809,461 L 809,460 L 804,455 L 804,454 L 800,450 L 800,449 L 795,444 L 795,443 L 790,438 L 790,437 L 786,433 L 786,432 L 781,427 L 781,426 L 776,421 L 776,420 L 772,416 L 772,415 L 767,410 L 767,409 L 763,405 L 763,404 L 759,400 L 759,399 L 755,395 L 755,394 L 751,390 L 751,389 L 747,385 L 747,384 L 743,380 L 743,379 L 739,375 L 739,374 L 735,370 L 735,369 L 731,365 L 731,364 L 727,360 L 727,359 L 722,354 L 722,353 L 718,349 L 718,348 L 714,344 L 714,343 L 710,339 L 710,338 L 705,333 L 705,332 L 701,328 L 701,327 L 697,323 L 697,322 L 693,318 L 693,317 L 690,314 L 690,313 L 686,309 L 686,308 L 682,304 L 682,303 L 678,299 L 678,298 L 675,295 L 675,294 L 671,290 L 671,289 L 668,286 L 668,285 L 664,281 L 664,280 L 661,277 L 661,276 L 658,273 L 658,272 L 656,270 L 656,269 L 653,266 L 653,265 L 650,262 L 650,261 L 647,258 L 647,257 L 645,255 L 645,254 L 641,250 L 641,249 L 638,246 L 638,245 L 635,242 L 635,241 L 632,238 L 632,237 L 629,234 L 629,233 L 625,229 L 625,228 L 622,225 L 622,224 L 619,221 L 619,220 L 616,217 L 616,216 L 613,213 L 613,212 L 609,208 L 609,207 L 606,204 L 606,203 L 603,200 L 603,199 L 600,196 L 600,195 L 597,192 L 597,191 L 595,189 L 595,193 L 596,194 L 596,197 L 597,198 L 597,201 L 598,202 L 598,206 L 599,207 L 599,211 L 600,212 L 600,215 L 601,216 L 601,219 L 602,220 L 602,223 L 603,224 L 603,227 L 604,228 L 604,231 L 605,232 L 605,235 L 606,236 L 606,240 L 607,241 L 607,244 L 608,245 L 608,248 L 609,249 L 609,252 L 610,253 L 610,255 L 611,256 L 611,258 L 612,259 L 612,262 L 613,263 L 613,265 L 614,266 L 614,269 L 615,270 L 615,272 L 616,273 L 616,275 L 617,276 L 617,279 L 618,280 L 618,283 L 619,284 L 619,287 L 620,288 L 620,290 L 621,291 L 621,295 L 622,296 L 622,298 L 623,299 L 623,303 L 624,304 L 624,307 L 625,308 L 625,311 L 626,312 L 626,315 L 627,316 L 627,318 L 628,319 L 628,322 L 629,323 L 629,326 L 630,327 L 630,330 L 631,331 L 631,333 L 632,334 L 632,337 L 633,338 L 633,341 L 634,342 L 634,344 L 635,345 L 635,348 L 636,349 L 636,351 L 637,352 L 637,355 L 638,356 L 638,359 L 639,360 L 639,362 L 640,363 L 640,366 L 641,367 L 641,370 L 642,371 L 642,374 L 643,375 L 643,378 L 644,379 L 644,381 L 645,382 L 645,385 L 646,386 L 646,389 L 647,390 L 647,393 L 648,394 L 648,397 L 649,398 L 649,401 L 650,402 L 650,404 L 651,405 L 651,408 L 652,409 L 652,412 L 653,413 L 653,416 L 654,417 L 654,420 L 655,421 L 655,424 L 656,425 L 656,428 L 657,429 L 657,431 L 658,432 L 658,435 L 659,436 L 659,439 L 660,440 L 660,443 L 661,444 L 661,446 L 662,447 L 662,450 L 663,451 L 663,454 L 664,455 L 664,458 L 665,459 L 665,462 L 666,463 L 666,466 L 667,467 L 667,470 L 668,471 L 668,474 L 669,475 L 669,478 L 670,479 L 670,482 L 671,483 L 671,486 L 672,487 L 672,490 L 673,491 L 673,495 L 674,496 L 674,499 L 675,500 L 675,503 L 676,504 L 676,507 L 677,508 L 677,511 L 678,512 L 678,515 L 679,516 L 679,519 L 680,520 L 680,523 L 681,524 L 681,527 L 682,528 L 682,531 L 683,532 L 683,535 L 684,536 L 684,538 L 685,539 L 685,542 L 686,543 L 686,546 L 687,547 L 687,549 L 686,550 L 683,547 L 682,547 L 673,538 L 672,538 L 660,526 L 659,526 L 652,519 L 651,519 L 642,510 L 641,510 L 632,501 L 631,501 L 621,491 L 620,491 L 608,479 L 607,479 L 597,469 L 596,469 L 587,460 L 586,460 L 582,456 L 582,457 L 581,458 L 581,460 L 580,461 L 580,462 L 579,463 L 579,464 L 578,465 L 578,467 L 577,468 L 577,469 L 576,470 L 576,472 L 575,473 L 575,474 L 574,475 L 574,477 L 573,478 L 573,479 L 572,480 L 572,482 L 571,483 L 571,484 L 570,485 L 570,486 L 569,487 L 569,489 L 568,490 L 568,491 L 567,492 L 567,493 L 566,494 L 566,496 L 565,497 L 565,498 L 564,499 L 564,500 L 563,501 L 563,503 L 562,504 L 562,505 L 561,506 L 561,507 L 560,508 L 560,510 L 559,511 L 559,512 L 558,513 L 558,514 L 557,515 L 557,516 L 556,517 L 556,519 L 555,520 L 555,521 L 554,522 L 554,523 L 553,524 L 553,525 L 552,526 L 552,527 L 551,528 L 551,530 L 550,531 L 550,532 L 549,533 L 549,534 L 548,535 L 547,535 L 546,534 L 546,533 L 544,531 L 544,530 L 542,528 L 542,527 L 541,526 L 541,525 L 539,523 L 539,522 L 537,520 L 537,519 L 536,518 L 536,517 L 534,515 L 534,514 L 532,512 L 532,511 L 531,510 L 531,509 L 529,507 L 529,506 L 528,505 L 528,504 L 526,502 L 526,501 L 525,500 L 525,499 L 523,497 L 523,496 L 521,494 L 521,493 L 520,492 L 520,491 L 518,489 L 518,488 L 517,487 L 517,486 L 515,484 L 515,483 L 513,481 L 513,480 L 512,480 L 511,481 L 511,482 L 510,483 L 510,484 L 508,486 L 508,487 L 506,489 L 506,490 L 505,491 L 505,492 L 503,494 L 503,495 L 502,496 L 502,497 L 500,499 L 500,500 L 498,502 L 498,503 L 495,506 L 495,507 L 492,510 L 492,511 L 489,514 L 489,515 L 487,517 L 487,518 L 485,520 L 485,521 L 483,523 L 483,524 L 482,525 L 482,526 L 480,528 L 480,529 L 479,530 L 479,531 L 477,533 L 477,534 L 475,536 L 473,534 L 473,532 L 472,531 L 472,530 L 471,529 L 471,527 L 470,526 L 470,525 L 469,524 L 469,523 L 468,522 L 468,520 L 467,519 L 467,518 L 466,517 L 466,516 L 465,515 L 465,513 L 464,512 L 464,511 L 463,510 L 463,509 L 462,508 L 462,506 L 461,505 L 461,504 L 460,503 L 460,502 L 459,501 L 459,499 L 458,498 L 458,497 L 457,496 L 457,494 L 456,493 L 456,492 L 455,491 L 455,490 L 454,489 L 454,488 L 453,487 L 453,485 L 452,484 L 452,483 L 451,482 L 451,481 L 450,480 L 450,479 L 449,478 L 449,477 L 448,476 L 448,474 L 447,473 L 447,472 L 446,471 L 446,470 L 445,469 L 445,467 L 444,466 L 444,465 L 443,464 L 443,462 L 442,461 L 442,460 L 441,459 L 441,457 L 440,457 L 433,464 L 432,464 L 421,475 L 420,475 L 410,485 L 409,485 L 400,494 L 399,494 L 390,503 L 389,503 L 378,514 L 377,514 L 367,524 L 366,524 L 358,532 L 357,532 L 348,541 L 347,541 L 340,548 L 339,548 L 337,550 L 336,549 L 336,547 L 337,546 L 337,543 L 338,542 L 338,539 L 339,538 L 339,535 L 340,534 L 340,531 L 341,530 L 341,527 L 342,526 L 342,523 L 343,522 L 343,519 L 344,518 L 344,515 L 345,514 L 345,512 L 346,511 L 346,508 L 347,507 L 347,504 L 348,503 L 348,500 L 349,499 L 349,497 L 350,496 L 350,493 L 351,492 L 351,490 L 352,489 L 352,486 L 353,485 L 353,482 L 354,481 L 354,478 L 355,477 L 355,474 L 356,473 L 356,471 L 357,470 L 357,467 L 358,466 L 358,463 L 359,462 L 359,458 L 360,457 L 360,454 L 361,453 L 361,450 L 362,449 L 362,446 L 363,445 L 363,443 L 364,442 L 364,439 L 365,438 L 365,435 L 366,434 L 366,431 L 367,430 L 367,427 L 368,426 L 368,423 L 369,422 L 369,420 L 370,419 L 370,415 L 371,414 L 371,412 L 372,411 L 372,408 L 373,407 L 373,404 L 374,403 L 374,400 L 375,399 L 375,396 L 376,395 L 376,393 L 377,392 L 377,389 L 378,388 L 378,385 L 379,384 L 379,381 L 380,380 L 380,377 L 381,376 L 381,373 L 382,372 L 382,369 L 383,368 L 383,366 L 384,365 L 384,362 L 385,361 L 385,358 L 386,357 L 386,354 L 387,353 L 387,351 L 388,350 L 388,346 L 389,345 L 389,342 L 390,341 L 390,338 L 391,337 L 391,335 L 392,334 L 392,331 L 393,330 L 393,327 L 394,326 L 394,323 L 395,322 L 395,319 L 396,318 L 396,316 L 397,315 L 397,312 L 398,311 L 398,308 L 399,307 L 399,305 L 400,304 L 400,301 L 401,300 L 401,297 L 402,296 L 402,292 L 403,291 L 403,288 L 404,287 L 404,284 L 405,283 L 405,280 L 406,279 L 406,276 L 407,275 L 407,272 L 408,271 L 408,267 L 409,266 L 409,264 L 410,263 L 410,260 L 411,259 L 411,256 L 412,255 L 412,252 L 413,251 L 413,247 L 414,246 L 414,243 L 415,242 L 415,238 L 416,237 L 416,233 L 417,232 L 417,229 L 418,228 L 418,225 L 419,224 L 419,221 L 420,220 L 420,217 L 421,216 L 421,213 L 422,212 L 422,210 L 423,209 L 423,207 L 424,206 L 424,203 L 425,202 L 425,200 L 426,199 L 426,197 L 427,196 L 427,193 L 428,192 L 428,190 L 429,189 Z M 281,641 L 282,642 L 282,644 L 281,645 L 281,648 L 280,649 L 280,652 L 279,653 L 279,656 L 278,657 L 278,659 L 277,660 L 277,663 L 276,664 L 276,667 L 275,668 L 275,670 L 274,671 L 274,674 L 273,675 L 273,677 L 272,678 L 272,681 L 271,682 L 271,684 L 270,685 L 270,688 L 269,689 L 269,692 L 268,693 L 268,696 L 267,697 L 267,699 L 266,700 L 266,703 L 265,704 L 265,706 L 264,707 L 240,683 L 239,683 L 238,682 L 238,681 L 239,680 L 240,680 L 251,669 L 252,669 L 269,652 L 270,652 Z M 741,640 L 759,658 L 760,658 L 772,670 L 773,670 L 783,680 L 784,680 L 785,681 L 785,682 L 760,707 L 759,707 L 758,706 L 758,703 L 757,702 L 757,700 L 756,699 L 756,696 L 755,695 L 755,693 L 754,692 L 754,690 L 753,689 L 753,686 L 752,685 L 752,683 L 751,682 L 751,679 L 750,678 L 750,675 L 749,674 L 749,672 L 748,671 L 748,668 L 747,667 L 747,665 L 746,664 L 746,662 L 745,661 L 745,658 L 744,657 L 744,654 L 743,653 L 743,651 L 742,650 L 742,647 L 741,646 L 741,643 L 740,642 L 740,641 Z M 281,641 L 282,640 L 283,641 L 282,642 Z M 702,613 L 703,614 L 703,616 L 704,617 L 704,620 L 705,621 L 705,623 L 706,624 L 706,627 L 707,628 L 707,631 L 708,632 L 708,635 L 709,636 L 709,638 L 710,639 L 710,642 L 711,643 L 711,646 L 712,647 L 712,650 L 713,651 L 713,653 L 714,654 L 714,657 L 715,658 L 715,660 L 716,661 L 716,664 L 717,665 L 717,668 L 718,669 L 718,671 L 719,672 L 719,675 L 720,676 L 720,679 L 721,680 L 721,682 L 722,683 L 722,686 L 723,687 L 723,690 L 724,691 L 724,693 L 725,694 L 725,697 L 726,698 L 726,700 L 727,701 L 727,704 L 728,705 L 728,708 L 729,709 L 729,712 L 730,713 L 730,716 L 731,717 L 731,719 L 732,720 L 732,723 L 733,724 L 733,726 L 734,727 L 734,729 L 735,730 L 735,731 L 724,742 L 723,742 L 723,743 L 722,744 L 721,744 L 720,745 L 720,746 L 675,791 L 674,791 L 640,825 L 640,826 L 622,844 L 621,844 L 613,852 L 613,853 L 581,885 L 581,886 L 579,888 L 578,887 L 578,738 L 622,694 L 622,693 L 623,692 L 624,692 L 624,691 L 649,666 L 649,665 L 677,637 L 677,636 L 691,622 L 692,622 L 701,613 Z M 321,612 L 322,612 L 324,614 L 324,615 L 335,626 L 336,626 L 342,632 L 342,633 L 359,650 L 359,651 L 377,669 L 377,670 L 405,698 L 405,699 L 441,735 L 442,735 L 445,738 L 445,822 L 446,823 L 446,876 L 445,877 L 445,886 L 444,887 L 423,866 L 423,865 L 289,731 L 289,729 L 290,728 L 290,725 L 291,724 L 291,721 L 292,720 L 292,717 L 293,716 L 293,713 L 294,712 L 294,709 L 295,708 L 295,705 L 296,704 L 296,701 L 297,700 L 297,697 L 298,696 L 298,694 L 299,693 L 299,690 L 300,689 L 300,686 L 301,685 L 301,682 L 302,681 L 302,679 L 303,678 L 303,675 L 304,674 L 304,672 L 305,671 L 305,668 L 306,667 L 306,664 L 307,663 L 307,660 L 308,659 L 308,657 L 309,656 L 309,653 L 310,652 L 310,650 L 311,649 L 311,647 L 312,646 L 312,643 L 313,642 L 313,639 L 314,638 L 314,636 L 315,635 L 315,632 L 316,631 L 316,628 L 317,627 L 317,624 L 318,623 L 318,620 L 319,619 L 319,616 L 320,615 L 320,613 Z M 655,316 L 658,319 L 658,320 L 659,321 L 659,322 L 662,325 L 662,326 L 666,330 L 666,331 L 670,335 L 670,336 L 674,340 L 674,341 L 678,345 L 678,346 L 683,351 L 683,352 L 688,357 L 688,358 L 692,362 L 692,363 L 696,367 L 696,368 L 700,372 L 700,373 L 704,377 L 704,378 L 708,382 L 708,383 L 713,388 L 713,389 L 717,393 L 717,394 L 722,399 L 722,400 L 727,405 L 727,406 L 732,411 L 732,412 L 736,416 L 736,417 L 741,422 L 741,423 L 744,426 L 744,427 L 749,432 L 749,433 L 754,438 L 754,439 L 758,443 L 758,444 L 762,448 L 762,449 L 766,453 L 766,454 L 770,458 L 770,459 L 774,463 L 774,464 L 779,469 L 779,470 L 783,474 L 783,475 L 788,480 L 788,481 L 766,503 L 766,504 L 743,527 L 743,528 L 720,551 L 719,550 L 719,549 L 718,548 L 718,545 L 717,544 L 717,541 L 716,540 L 716,538 L 715,537 L 715,534 L 714,533 L 714,530 L 713,529 L 713,527 L 712,526 L 712,523 L 711,522 L 711,520 L 710,519 L 710,516 L 709,515 L 709,512 L 708,511 L 708,509 L 707,508 L 707,505 L 706,504 L 706,501 L 705,500 L 705,497 L 704,496 L 704,493 L 703,492 L 703,490 L 702,489 L 702,486 L 701,485 L 701,482 L 700,481 L 700,479 L 699,478 L 699,475 L 698,474 L 698,472 L 697,471 L 697,468 L 696,467 L 696,465 L 695,464 L 695,461 L 694,460 L 694,458 L 693,457 L 693,454 L 692,453 L 692,450 L 691,449 L 691,446 L 690,445 L 690,443 L 689,442 L 689,439 L 688,438 L 688,435 L 687,434 L 687,431 L 686,430 L 686,428 L 685,427 L 685,424 L 684,423 L 684,421 L 683,420 L 683,417 L 682,416 L 682,413 L 681,412 L 681,409 L 680,408 L 680,405 L 679,404 L 679,402 L 678,401 L 678,398 L 677,397 L 677,394 L 676,393 L 676,391 L 675,390 L 675,387 L 674,386 L 674,384 L 673,383 L 673,380 L 672,379 L 672,376 L 671,375 L 671,373 L 670,372 L 670,369 L 669,368 L 669,365 L 668,364 L 668,362 L 667,361 L 667,358 L 666,357 L 666,355 L 665,354 L 665,351 L 664,350 L 664,348 L 663,347 L 663,344 L 662,343 L 662,340 L 661,339 L 661,337 L 660,336 L 660,333 L 659,332 L 659,330 L 658,329 L 658,327 L 657,326 L 657,324 L 656,323 L 656,321 L 655,320 L 655,319 L 654,318 L 654,317 Z M 368,315 L 369,316 L 369,317 L 368,318 L 368,321 L 367,322 L 367,324 L 366,325 L 366,327 L 365,328 L 365,331 L 364,332 L 364,334 L 363,335 L 363,337 L 362,338 L 362,340 L 361,341 L 361,344 L 360,345 L 360,347 L 359,348 L 359,351 L 358,352 L 358,355 L 357,356 L 357,358 L 356,359 L 356,362 L 355,363 L 355,366 L 354,367 L 354,370 L 353,371 L 353,374 L 352,375 L 352,377 L 351,378 L 351,381 L 350,382 L 350,385 L 349,386 L 349,388 L 348,389 L 348,392 L 347,393 L 347,395 L 346,396 L 346,399 L 345,400 L 345,402 L 344,403 L 344,406 L 343,407 L 343,410 L 342,411 L 342,414 L 341,415 L 341,417 L 340,418 L 340,421 L 339,422 L 339,425 L 338,426 L 338,428 L 337,429 L 337,432 L 336,433 L 336,436 L 335,437 L 335,440 L 334,441 L 334,444 L 333,445 L 333,448 L 332,449 L 332,452 L 331,453 L 331,456 L 330,457 L 330,459 L 329,460 L 329,463 L 328,464 L 328,467 L 327,468 L 327,471 L 326,472 L 326,475 L 325,476 L 325,479 L 324,480 L 324,483 L 323,484 L 323,486 L 322,487 L 322,490 L 321,491 L 321,494 L 320,495 L 320,497 L 319,498 L 319,501 L 318,502 L 318,505 L 317,506 L 317,509 L 316,510 L 316,512 L 315,513 L 315,516 L 314,517 L 314,520 L 313,521 L 313,523 L 312,524 L 312,527 L 311,528 L 311,531 L 310,532 L 310,535 L 309,536 L 309,538 L 308,539 L 308,542 L 307,543 L 307,545 L 306,546 L 306,549 L 305,550 L 305,551 L 304,552 L 295,543 L 295,542 L 270,517 L 270,516 L 254,500 L 254,499 L 243,488 L 243,487 L 236,480 L 236,478 L 240,474 L 240,473 L 243,470 L 243,469 L 247,465 L 247,464 L 251,460 L 251,459 L 255,455 L 255,454 L 259,450 L 259,449 L 264,444 L 264,443 L 269,438 L 269,437 L 273,433 L 273,432 L 277,428 L 277,427 L 282,422 L 282,421 L 286,417 L 286,416 L 291,411 L 291,410 L 295,406 L 295,405 L 300,400 L 300,399 L 304,395 L 304,394 L 307,391 L 307,390 L 311,386 L 311,385 L 314,382 L 314,381 L 319,376 L 319,375 L 324,370 L 324,369 L 329,364 L 329,363 L 334,358 L 334,357 L 339,352 L 339,351 L 342,348 L 342,347 L 346,343 L 346,342 L 350,338 L 350,337 L 353,334 L 353,333 L 357,329 L 357,328 L 361,324 L 361,323 L 365,319 L 365,318 Z" fill="white" fill-rule="evenodd" stroke="none" /></svg>